<svg xmlns="http://www.w3.org/2000/svg" width="253.28" height="42.54" viewBox="0 0 253.28 42.54">
  <g id="Group_4" data-name="Group 4" transform="translate(-64.72 -28.73)">
    <path id="Icon_simple-codeschool" data-name="Icon simple-codeschool" d="M21.272,38.7a17.436,17.436,0,1,1,12.341-5.105A17.446,17.446,0,0,1,21.272,38.7Zm0-38.7a21.27,21.27,0,1,0,21.27,21.27A21.28,21.28,0,0,0,21.272,0ZM18.966,27.109,12.758,21.27l6.208-5.86V9.944L6.984,21.27,18.966,32.578ZM23.593,9.941v5.466l6.2,5.863-6.208,5.839v5.469L35.576,21.27,23.585,9.944" transform="translate(64.729 28.73)" fill="#dfdfdf"/>
    <text id="Student_System" data-name="Student System" transform="translate(128 57)" fill="#dfdfdf" font-size="20" font-family="Montserrat-ExtraBold, Montserrat" font-weight="800"><tspan x="0" y="0">STUDENT SYSTEM</tspan></text>
  </g>
</svg>
